<svg xmlns="http://www.w3.org/2000/svg" viewBox="0 0 70 70" enable-background="new 0 0 70 70"><style type="text/css">.st0{fill:#000820;}</style><path class="st0" d="M35.1 2.3c-18.1 0-32.8 14.6-32.8 32.7s14.7 32.7 32.8 32.7c18.1 0 32.8-14.6 32.8-32.7s-14.7-32.7-32.8-32.7zm-9 48.2h-7v-21h7v21zm-3.5-23c-2.4 0-3.9-1.8-3.9-3.7 0-2 1.5-3.6 3.9-3.6s3.8 1.7 3.9 3.7c0 1.9-1.5 3.6-3.9 3.6zm28.5 23h-7v-11c0-2.8-1-4.6-3.5-4.6-1.9 0-2.9 1.3-3.4 2.5-.2.4-.1 1.1-.1 1.7v11.5h-7.2s.1-19 0-21h7.2v3.3c0-1.4 2.5-3.4 6.1-3.4 4.5 0 7.9 2.9 7.9 9.3v11.7z"/></svg>