<?xml version="1.0" encoding="utf-8"?>
<!-- Generator: Adobe Illustrator 19.1.0, SVG Export Plug-In . SVG Version: 6.00 Build 0)  -->
<svg version="1.1" id="Layer_1" xmlns="http://www.w3.org/2000/svg" xmlns:xlink="http://www.w3.org/1999/xlink" x="0px" y="0px"
	 viewBox="0 0 1224 792" style="enable-background:new 0 0 1224 792;" xml:space="preserve">
<style type="text/css">
	.st0{fill:#EC7C50;stroke:#EC7C50;stroke-width:10;stroke-miterlimit:10;}
	.st1{fill:#EC7C50;}
	.st2{fill:none;stroke:#EC7C50;stroke-width:20;stroke-linecap:round;stroke-miterlimit:10;}
	.st3{fill:#EC7C50;stroke:#EC7C50;stroke-miterlimit:10;}
	.st4{fill:none;stroke:#EC7C50;stroke-width:14;stroke-miterlimit:10;}
</style>
<g>
	<g>
		<path class="st0" d="M277.4,155.2c-59.6,0-108,48.4-108,108s48.4,108,108,108s108-48.4,108-108S337,155.2,277.4,155.2z
			 M277.4,360.4c-53.7,0-97.2-43.6-97.2-97.2s43.5-97.2,97.2-97.2s97.2,43.6,97.2,97.2S331.1,360.4,277.4,360.4z"/>
		<g id="Layer_2">
			<path class="st1" d="M207.4,279.3L207.4,279.3c-6.6,0-12,5.3-12,11.7v25c1.9,6.3,5.4,11.7,12,11.7v4.6c5.2,2.6,12,13.6,12,7.1
				V291C219.4,284.6,214,279.3,207.4,279.3z"/>
			<path class="st1" d="M235.8,255.6L235.8,255.6c-6.6,0-12,7.3-12,16.3v70.9c7.3,6.6,1.5,3.6,7.3,6.6l4.7,0.9
				c5.2,3.6,5.2,6.3,12,4.5v-82.9C247.8,263,242.3,255.6,235.8,255.6z"/>
			<path class="st1" d="M264.2,307.2L264.2,307.2c-6.6,0-12,7.3-12,16.3V359c8,0,0.5,1.6,7.1,1.6l4.9-1.6c5.2,3.6,2.4,2,12,0.7
				v-36.3C276.1,314.5,270.7,307.2,264.2,307.2z"/>
			<path class="st1" d="M292.5,223.4L292.5,223.4c6.6,0,12,7.3,12,16.3v117c-7.3,2.8-0.7,2.8-7.3,2.8l-4.7,0.9
				c-6.2-0.6-6.2-0.6-12,1.7V239.7C280.5,230.7,285.9,223.4,292.5,223.4z"/>
			<path class="st1" d="M320.9,247L320.9,247c6.6,0,12,7.3,12,16.3v80.9c-6.4,4.2-5.1-0.5-9.8,3.8l-2.1,3.6c-6.2-0.6-6.2-0.6-12,1.7
				v-90.1C308.9,254.4,314.4,247,320.9,247z"/>
			<path class="st1" d="M349.3,219.6L349.3,219.6c6.6,0,12,7.3,12,16.3v78.8c-6.4,4.2-2.5,4.2-7.3,8.6l-4.7,2.8
				c0,6.5-6.2,11.8-12,14.1V235.9C337.3,227,342.7,219.6,349.3,219.6z"/>
		</g>
	</g>
	<g>
		<path class="st0" d="M612,155.2c-59.6,0-108,48.4-108,108s48.4,108,108,108s108-48.4,108-108S671.6,155.2,612,155.2z M612,360.4
			c-53.7,0-97.2-43.6-97.2-97.2S558.3,166,612,166s97.2,43.6,97.2,97.2S665.7,360.4,612,360.4z"/>
		<g id="Layer_2_1_">
			<g id="Layer_2_2_">
				<g>
					<circle class="st1" cx="612.2" cy="309.3" r="17.7"/>
					<path class="st1" d="M581.6,275.9l10.3,10.9c0,0,6.1-9.4,20.3-9.7c0,0,9.4-0.5,17.7,9.7l11.3-10.8c0,0-8.4-14.8-29-14.8
						C612.2,261.2,593.9,259.7,581.6,275.9z"/>
					<path class="st1" d="M561,256l10.2,10.9c0,0,12.8-17.1,41.9-17.5c0,0,21.9-1.3,37.9,17.5l11.3-11.2c0,0-17.5-23.1-54.8-23.1
						C607.4,232.7,579.6,232.7,561,256z"/>
					<path class="st1" d="M551.6,247c0,0,55-57.5,119.6,0l11.4-11.4c0,0-67.8-72-141.3,0.3L551.6,247z"/>
				</g>
			</g>
		</g>
	</g>
	<g>
		<path class="st0" d="M946.6,155.2c-59.6,0-108,48.4-108,108s48.4,108,108,108c59.6,0,108-48.4,108-108S1006.3,155.2,946.6,155.2z
			 M946.6,360.4c-53.7,0-97.2-43.6-97.2-97.2s43.5-97.2,97.2-97.2s97.2,43.6,97.2,97.2S1000.3,360.4,946.6,360.4z"/>
		<g id="Layer_2_3_">
			<g>
				<line class="st2" x1="886.3" y1="213.8" x2="1008.9" y2="213.8"/>
				<line class="st2" x1="886.3" y1="246.9" x2="1008.9" y2="246.9"/>
				<line class="st2" x1="886.3" y1="278.9" x2="1008.9" y2="278.9"/>
				<line class="st2" x1="886.3" y1="312" x2="1008.9" y2="312"/>
			</g>
		</g>
	</g>
</g>
<g>
	<g>
		<path class="st0" d="M446.9,455.5c-59.6,0-108,48.4-108,108s48.4,108,108,108s108-48.4,108-108
			C554.9,503.9,506.5,455.5,446.9,455.5z M446.9,660.8c-53.7,0-97.2-43.6-97.2-97.2s43.5-97.2,97.2-97.2s97.2,43.6,97.2,97.2
			C544.1,617.2,500.6,660.8,446.9,660.8z"/>
		<g id="Layer_2_4_">
			<path class="st1" d="M474.7,502.5c-11,0-20.9,4.9-27.6,12.5c-6.6-7.6-16.5-12.5-27.5-12.5c-20.2,0-36.6,16.4-36.6,36.6
				c0,37,64.2,92.5,64.2,92.5s64.2-55.5,64.2-92.5C511.3,518.9,495,502.5,474.7,502.5z"/>
		</g>
	</g>
	<g>
		<path class="st0" d="M777.1,455.5c-59.6,0-108,48.4-108,108s48.4,108,108,108c59.6,0,108-48.4,108-108
			C885.1,503.9,836.8,455.5,777.1,455.5z M777.1,660.8c-53.7,0-97.2-43.6-97.2-97.2s43.5-97.2,97.2-97.2s97.2,43.6,97.2,97.2
			C874.4,617.2,830.9,660.8,777.1,660.8z"/>
		<g id="Layer_2_5_">
			<g>
				<path class="st3" d="M789.9,577.2c0,0,4,5.5,8.3,11.5h0.2v9h11v22h-62.1v-22h10v-9h2.3c-0.1-4,0-2.5,0.3-2.9
					c4-5,7.4-9.2,7.4-9.2c-41.6-20.6-35.9-63.9-35.9-63.9h94.7C826.7,557.6,789.9,577.2,789.9,577.2z"/>
				<rect x="724.4" y="505.6" class="st3" width="106.1" height="7"/>
				<path class="st4" d="M728,508.6l-8,0.7l-0.8,0.6c0,0-6.1,25.7,13.6,42.6c1,0.8,2.3,1.2,3.6,1.1l9.2-0.8"/>
				<path class="st4" d="M827.7,509.1l8,0.2l0.8,0.5c0,0,7.8,25.2-10.7,43.4c-0.9,0.9-2.2,1.4-3.5,1.3h-10.4"/>
			</g>
		</g>
	</g>
</g>
</svg>
