<svg xmlns="http://www.w3.org/2000/svg" viewBox="0 0 1224 792" enable-background="new 0 0 1224 792"><style type="text/css">.st0{fill:#EC7C50;stroke:#EC7C50;stroke-width:10;stroke-miterlimit:10;} .st1{fill:#EC7C50;} .st2{fill:none;stroke:#EC7C50;stroke-width:20;stroke-linecap:round;stroke-miterlimit:10;} .st3{fill:#EC7C50;stroke:#EC7C50;stroke-miterlimit:10;} .st4{fill:none;stroke:#EC7C50;stroke-width:14;stroke-miterlimit:10;}</style><path class="st0" d="M277.4 155.2c-59.6 0-108 48.4-108 108s48.4 108 108 108 108-48.4 108-108-48.4-108-108-108zm0 205.2c-53.7 0-97.2-43.6-97.2-97.2s43.5-97.2 97.2-97.2 97.2 43.6 97.2 97.2-43.5 97.2-97.2 97.2z"/><g id="Layer_2"><path class="st1" d="M207.4 279.3c-6.6 0-12 5.3-12 11.7v25c1.9 6.3 5.4 11.7 12 11.7v4.6c5.2 2.6 12 13.6 12 7.1v-48.4c0-6.4-5.4-11.7-12-11.7zM235.8 255.6c-6.6 0-12 7.3-12 16.3v70.9l7.3 6.6 4.7.9c5.2 3.6 5.2 6.3 12 4.5v-82.9c0-8.9-5.5-16.3-12-16.3zM264.2 307.2c-6.6 0-12 7.3-12 16.3v35.5c8 0 .5 1.6 7.1 1.6l4.9-1.6c5.2 3.6 2.4 2 12 .7v-36.3c-.1-8.9-5.5-16.2-12-16.2zM292.5 223.4c6.6 0 12 7.3 12 16.3v117l-7.3 2.8-4.7.9c-6.2-.6-6.2-.6-12 1.7v-122.4c0-9 5.4-16.3 12-16.3zM320.9 247c6.6 0 12 7.3 12 16.3v80.9c-6.4 4.2-5.1-.5-9.8 3.8l-2.1 3.6c-6.2-.6-6.2-.6-12 1.7v-90.1c-.1-8.8 5.4-16.2 11.9-16.2zM349.3 219.6c6.6 0 12 7.3 12 16.3v78.8c-6.4 4.2-2.5 4.2-7.3 8.6l-4.7 2.8c0 6.5-6.2 11.8-12 14.1v-104.3c0-8.9 5.4-16.3 12-16.3z"/></g><path class="st0" d="M612 155.2c-59.6 0-108 48.4-108 108s48.4 108 108 108 108-48.4 108-108-48.4-108-108-108zm0 205.2c-53.7 0-97.2-43.6-97.2-97.2s43.5-97.2 97.2-97.2 97.2 43.6 97.2 97.2-43.5 97.2-97.2 97.2z"/><g id="Layer_2_2_"><circle class="st1" cx="612.2" cy="309.3" r="17.7"/><path class="st1" d="M581.6 275.9l10.3 10.9s6.1-9.4 20.3-9.7c0 0 9.4-.5 17.7 9.7l11.3-10.8s-8.4-14.8-29-14.8c0 0-18.3-1.5-30.6 14.7zM561 256l10.2 10.9s12.8-17.1 41.9-17.5c0 0 21.9-1.3 37.9 17.5l11.3-11.2s-17.5-23.1-54.8-23.1c-.1.1-27.9.1-46.5 23.4zM551.6 247s55-57.5 119.6 0l11.4-11.4s-67.8-72-141.3.3l10.3 11.1z"/></g><path class="st0" d="M946.6 155.2c-59.6 0-108 48.4-108 108s48.4 108 108 108 108-48.4 108-108-48.3-108-108-108zm0 205.2c-53.7 0-97.2-43.6-97.2-97.2s43.5-97.2 97.2-97.2 97.2 43.6 97.2 97.2-43.5 97.2-97.2 97.2z"/><g id="Layer_2_3_"><path class="st2" d="M886.3 213.8h122.6M886.3 246.9h122.6M886.3 278.9h122.6M886.3 312h122.6"/></g><path class="st0" d="M446.9 455.5c-59.6 0-108 48.4-108 108s48.4 108 108 108 108-48.4 108-108-48.4-108-108-108zm0 205.3c-53.7 0-97.2-43.6-97.2-97.2s43.5-97.2 97.2-97.2 97.2 43.6 97.2 97.2-43.5 97.2-97.2 97.2z"/><path class="st1" d="M474.7 502.5c-11 0-20.9 4.9-27.6 12.5-6.6-7.6-16.5-12.5-27.5-12.5-20.2 0-36.6 16.4-36.6 36.6 0 37 64.2 92.5 64.2 92.5s64.2-55.5 64.2-92.5c-.1-20.2-16.4-36.6-36.7-36.6z" id="Layer_2_4_"/><path class="st0" d="M777.1 455.5c-59.6 0-108 48.4-108 108s48.4 108 108 108 108-48.4 108-108-48.3-108-108-108zm0 205.3c-53.7 0-97.2-43.6-97.2-97.2s43.5-97.2 97.2-97.2 97.2 43.6 97.2 97.2c.1 53.6-43.4 97.2-97.2 97.2z"/><g id="Layer_2_5_"><path class="st3" d="M789.9 577.2s4 5.5 8.3 11.5h.2v9h11v22h-62.1v-22h10v-9h2.3c-.1-4 0-2.5.3-2.9 4-5 7.4-9.2 7.4-9.2-41.6-20.6-35.9-63.9-35.9-63.9h94.7c.6 44.9-36.2 64.5-36.2 64.5zM724.4 505.6h106.1v7h-106.1z"/><path class="st4" d="M728 508.6l-8 .7-.8.6s-6.1 25.7 13.6 42.6c1 .8 2.3 1.2 3.6 1.1l9.2-.8M827.7 509.1l8 .2.8.5s7.8 25.2-10.7 43.4c-.9.9-2.2 1.4-3.5 1.3h-10.4"/></g></svg>