<svg xmlns="http://www.w3.org/2000/svg" viewBox="0 0 70 70" enable-background="new 0 0 70 70"><style type="text/css">.st0{fill:#000820;}</style><path class="st0" d="M29.7 32c.5-.3.8-.9.8-1.8 0-1-.4-1.4-1.1-1.7-.6-.2-1.4-.1-2.4-.1h-4v4h4.5c.9.1 1.6 0 2.2-.4zm14.3.7c-1 0-1.8.1-2.3.6-.6.6-.9 1.1-1 2.1h6.8c-.1-1-.4-1.6-1-2.2-.8-.4-1.6-.5-2.5-.5zm-14.4 3.4c-.5-.2-1.2-.6-2-.6h-4.5v6h4.5c.9 0 1.6-.2 2.1-.4.9-.4 1.3-1.4 1.3-2.7-.1-1.1-.5-1.9-1.4-2.3zm5.4-34c-18.2 0-32.9 14.7-32.9 32.9s14.7 32.9 32.9 32.9 32.9-14.7 32.9-32.9-14.7-32.9-32.9-32.9zm5.1 23.4h8v3h-8v-3zm-5.8 16.5c-.4.6-.9 1.2-1.4 1.6-.6.5-1.4.6-2.3.8-.9.2-1.8.1-2.9.1h-9.6v-20h10.3c2.5 0 4.2.8 5.3 2.2.6.9.9 1.9.9 3.1 0 1.2-.3 2.3-.9 3-.4.4-.9.8-1.6 1.2 1 .4 1.8 1 2.4 1.8.5.8.8 1.8.8 3-.1 1.2-.4 2.3-1 3.2zm17.2-3.5h-11c.1 2 .6 2.6 1.6 3.2.6.4 1.3.6 2.2.6.9 0 1.6-.2 2.2-.7.3-.2.6-1.1.8-1.1h4c-.1 1-.6 1.8-1.5 2.7-1.3 1.5-3.2 2.2-5.7 2.2-2 0-3.8-.6-5.3-1.8-1.5-1.2-2.3-3.2-2.3-6 0-2.6.7-4.6 2.1-6 1.4-1.4 3.2-2.1 5.4-2.1 1.3 0 2.5.2 3.5.7 1.1.5 1.9 1.2 2.6 2.2.6.9 1 1.9 1.2 3.1.1.7.2 2 .2 3z"/></svg>