<?xml version="1.0" encoding="utf-8"?>
<!-- Generator: Adobe Illustrator 19.1.0, SVG Export Plug-In . SVG Version: 6.00 Build 0)  -->
<svg version="1.1" id="Layer_1" xmlns="http://www.w3.org/2000/svg" xmlns:xlink="http://www.w3.org/1999/xlink" x="0px" y="0px"
	 viewBox="0 0 70 70" style="enable-background:new 0 0 70 70;" xml:space="preserve">
<style type="text/css">
	.st0{fill:#000820;}
</style>
<g>
	<path class="st0" d="M29.7,32c0.5-0.3,0.8-0.9,0.8-1.8c0-1-0.4-1.4-1.1-1.7c-0.6-0.2-1.4-0.1-2.4-0.1h-4v4h4.5
		C28.4,32.5,29.1,32.4,29.7,32z"/>
	<path class="st0" d="M44,32.7c-1,0-1.8,0.1-2.3,0.6c-0.6,0.6-0.9,1.1-1,2.1h6.8c-0.1-1-0.4-1.6-1-2.2C45.7,32.8,44.9,32.7,44,32.7z
		"/>
	<path class="st0" d="M29.6,36.1c-0.5-0.2-1.2-0.6-2-0.6h-4.5v6h4.5c0.9,0,1.6-0.2,2.1-0.4c0.9-0.4,1.3-1.4,1.3-2.7
		C30.9,37.3,30.5,36.5,29.6,36.1z"/>
	<path class="st0" d="M35,2.1C16.8,2.1,2.1,16.8,2.1,35c0,18.2,14.7,32.9,32.9,32.9c18.2,0,32.9-14.7,32.9-32.9
		C67.9,16.8,53.2,2.1,35,2.1z M40.1,25.5h8v3h-8V25.5z M34.3,42c-0.4,0.6-0.9,1.2-1.4,1.6c-0.6,0.5-1.4,0.6-2.3,0.8
		c-0.9,0.2-1.8,0.1-2.9,0.1h-9.6v-20h10.3c2.5,0,4.2,0.8,5.3,2.2c0.6,0.9,0.9,1.9,0.9,3.1c0,1.2-0.3,2.3-0.9,3
		c-0.4,0.4-0.9,0.8-1.6,1.2c1,0.4,1.8,1,2.4,1.8c0.5,0.8,0.8,1.8,0.8,3C35.2,40,34.9,41.1,34.3,42z M51.5,38.5h-11
		c0.1,2,0.6,2.6,1.6,3.2c0.6,0.4,1.3,0.6,2.2,0.6c0.9,0,1.6-0.2,2.2-0.7c0.3-0.2,0.6-1.1,0.8-1.1h4c-0.1,1-0.6,1.8-1.5,2.7
		c-1.3,1.5-3.2,2.2-5.7,2.2c-2,0-3.8-0.6-5.3-1.8c-1.5-1.2-2.3-3.2-2.3-6c0-2.6,0.7-4.6,2.1-6c1.4-1.4,3.2-2.1,5.4-2.1
		c1.3,0,2.5,0.2,3.5,0.7c1.1,0.5,1.9,1.2,2.6,2.2c0.6,0.9,1,1.9,1.2,3.1C51.4,36.2,51.5,37.5,51.5,38.5z"/>
</g>
</svg>
