<?xml version="1.0" encoding="utf-8"?>
<!-- Generator: Adobe Illustrator 19.1.0, SVG Export Plug-In . SVG Version: 6.00 Build 0)  -->
<svg version="1.1" id="Layer_1" xmlns="http://www.w3.org/2000/svg" xmlns:xlink="http://www.w3.org/1999/xlink" x="0px" y="0px"
	 viewBox="0 0 82.4 78.7" style="enable-background:new 0 0 82.4 78.7;" xml:space="preserve">
<style type="text/css">
	.st0{fill:#1D4587;}
</style>
<g>
	<path class="st0" d="M63.7,6.3c2.3,12.8,4.7,25.6,7,38.5c0.1,0.8,1.2,1,1.6,0.4c1.9-2.9,3-12.2,4.4-12.5c4.5-0.7,0.6,12.9,0.6,12.9
		c-1.6,3.3-2.8,5.4-6.7,5.6c-0.2,0-0.4,0-0.6-0.1c-1.5-0.3-2.7-1.5-3-3.1c-1.2-5.6-4.7-21.3-6.2-29.8c-2.3,14.6-1.5,29.6-0.7,44.4
		c0.2,2.9-4.2,3.3-4.9,0.7C49.8,44.3,44.4,25.1,39,6c-1.8,4.3-1.8,10.3-2.3,14.3c-0.7,6-1.2,12.1-1.5,18.1
		c-0.7,12.8-0.5,25.5,0.4,38.3c0,0.7-0.1,1.2-0.5,1.6c2,0.3,4,0.4,6.1,0.4c22.8,0,41.2-17.6,41.2-39.4C82.4,25.5,75,13.4,63.7,6.3z"
		/>
	<path class="st0" d="M59.3,3.9C54.2,1.6,48.5,0.2,42.5,0c3.9,13.9,7.8,27.8,11.8,41.7C54.2,29.3,55.1,17,58.6,5
		C58.7,4.6,59,4.2,59.3,3.9z"/>
	<path class="st0" d="M30.7,77.3c-3.6-10-7.5-19.9-11.7-29.6c-1-2.3-2.1-4.7-3.1-7c-0.8-1.8-1.9-5-3.2-6.9c-1-1.6-1.7-2-2.3-0.9
		c-0.6,1.3-1.1,2.7-1.3,4.2c-0.5,3-0.2,5.8,0.6,8.6c0.9,3.1-3.9,4.4-4.8,1.3C3.3,41.6,3,33.4,7,28.8c3.1-3.5,7-2.1,9.4,1.5
		c4,6.2,6.6,14,9.4,20.8c1.4,3.3,2.8,6.7,4.1,10c-0.2-9.5,0-19,0.7-28.5c0.5-6.9,1.2-13.8,2.2-20.7c0.6-4.2,1.1-8.5,3.8-11.8
		C16,2.4,0,19.1,0,39.3C0,57.6,13.1,73,30.7,77.3C30.7,77.4,30.7,77.3,30.7,77.3z"/>
</g>
</svg>
