<svg xmlns="http://www.w3.org/2000/svg" viewBox="0 0 82.4 78.7" enable-background="new 0 0 82.4 78.7"><style type="text/css">.st0{fill:#1D4587;}</style><path class="st0" d="M63.7 6.3c2.3 12.8 4.7 25.6 7 38.5.1.8 1.2 1 1.6.4 1.9-2.9 3-12.2 4.4-12.5 4.5-.7.6 12.9.6 12.9-1.6 3.3-2.8 5.4-6.7 5.6-.2 0-.4 0-.6-.1-1.5-.3-2.7-1.5-3-3.1-1.2-5.6-4.7-21.3-6.2-29.8-2.3 14.6-1.5 29.6-.7 44.4.2 2.9-4.2 3.3-4.9.7-5.4-19-10.8-38.2-16.2-57.3-1.8 4.3-1.8 10.3-2.3 14.3-.7 6-1.2 12.1-1.5 18.1-.7 12.8-.5 25.5.4 38.3 0 .7-.1 1.2-.5 1.6 2 .3 4 .4 6.1.4 22.8 0 41.2-17.6 41.2-39.4 0-13.8-7.4-25.9-18.7-33zM59.3 3.9c-5.1-2.3-10.8-3.7-16.8-3.9 3.9 13.9 7.8 27.8 11.8 41.7-.1-12.4.8-24.7 4.3-36.7.1-.4.4-.8.7-1.1zM30.7 77.3c-3.6-10-7.5-19.9-11.7-29.6l-3.1-7c-.8-1.8-1.9-5-3.2-6.9-1-1.6-1.7-2-2.3-.9-.6 1.3-1.1 2.7-1.3 4.2-.5 3-.2 5.8.6 8.6.9 3.1-3.9 4.4-4.8 1.3-1.6-5.4-1.9-13.6 2.1-18.2 3.1-3.5 7-2.1 9.4 1.5 4 6.2 6.6 14 9.4 20.8 1.4 3.3 2.8 6.7 4.1 10-.2-9.5 0-19 .7-28.5.5-6.9 1.2-13.8 2.2-20.7.6-4.2 1.1-8.5 3.8-11.8-20.6 2.3-36.6 19-36.6 39.2 0 18.3 13.1 33.7 30.7 38z"/></svg>