<svg xmlns="http://www.w3.org/2000/svg" viewBox="0 0 409.1 163.7" enable-background="new 0 0 409.1 163.7"><style type="text/css">.st0{fill:#FFFFFF;}</style><path class="st0" d="M406.1 92.9c-4.9 1.2-9.9 2.2-14.8 3.3 1.9-15.9.6-32.2-2.8-47.8-.4-1.8-3-2.7-4.1-1.1-4.9 6.8-7.3 15-11.6 22.2-2.1 3.5-7.6 8.8-11.3 4.4-3.8-4.5-1.6-10.9.4-15.6 1.3-3.1-2.4-5.4-4.2-2.6-3 4.6-5.9 9.2-8.9 13.7-.8 1.3-1.6 3-2.8 3.9-.8.6-3 2.2-3.9.5-.2-.3.4-1.8.4-2.1.9-4.3 1.8-8.6 2.7-13 .5-2.3-1.6-3.7-3.2-3.1-.3-4.4-4.7-8-9.1-7.1-2.7.5-4.8 2.6-6.5 4.9-3.5 5.1-9.1 9.8-13.4 14.3-10.3 10.6-11.5 7.4-11.4 4.7.1-1 .3-1.9.6-2.9 1.7-4.7 11-30 15.8-42.5 1.1-3-2.7-5.1-4.7-3.2-10.8 10.2-19.3 22.5-26.8 35.5l14.4-51.9c.7-2.4-1.3-4.2-3.4-3.9-6.1.7-9.8 5.7-13.6 10.4-5.2 6.5-10.1 13.2-14.9 20.1-6.5 9.4-12.6 19.2-18.2 29.3.8-4.4 1.5-8.8 2.2-13.2 1.4-9 3.8-18.9 3.7-28-.1-5.3-3-9.4-8.2-7.7-6.8 2.1-11.5 10.9-13.4 17.6-1 3.8 4.4 5.7 5.5 1.8 1-3.5 2.3-6.7 4.7-9.4 1.2-1.3 2.4-2.5 3.9-3.5 1.2-.7 1.6.2 1.7 2.5 0 2.9-.8 7-1.1 9.4-.4 3.1-.8 6.2-1.3 9.4-1.9 13-4.2 25.9-6.9 38.7-.7 3.2 3.5 5.8 5.2 2.6 7-13.9 14.7-27.4 23.2-40.3 4.1-6.1 8.3-12.1 12.7-17.9 2.9-3.9 6.5-10.1 11-13.4-6.6 23.6-13.2 47.2-19.7 70.8-.9 3.3 3.6 5.7 5.2 2.6 8.3-16.1 16.8-32.2 28-46-3.3 8.7-10.6 29.8-11.5 34.6-2.2 10.9 7.1 7 7.5 6.8 5.4-1.9 10.8-5.3 14.4-8.8-1.2 6.5 3.1 12.6 10.1 10 3.4-1.2 5.7-4.2 7.7-7.2.8-1.2 1.5-2.4 2.3-3.5-.5 2.3-.7 4.7.4 6.6 4.2 7.8 11.4.1 16.8-7.9.2 1.2.5 2.4 1 3.7 1.9 4.7 4.6 7.9 9.5 7.2 11.4-1.8 14.5-14.9 19.6-24.8 2.4 13.7 3 27.9 1.1 41.5-9.3 2.3-18.4 5.1-26.9 10.2-7.4 4.4-14 9.9-19.2 17.2-4.1 5.7-8.4 13-8.3 20.5.1 7.6 4.4 15.1 11.3 17.5 7.2 2.5 14.7-1.7 19.8-6.8 12.2-12.1 21.5-28.5 25.9-45.7.7-2.9 1.3-5.8 1.8-8.7l16.9-3.7c3.1-.7 1.7-5.8-1.3-5.1zm-72.3-25.3c-1.1 1.8-2.2 3.6-3.5 5.3-.5.7-1 1.4-1.7 2.1-2.1 2.7-6.5 3.5-6.5-2.3.2-1.8 1.9-4.2 2.7-5.9 1.1-2.2 2.1-4.5 3.3-6.7.8-1.4 1.5-3 2.6-4.2 1-1.4 2.4-2.1 4.1-2.2 1.9.5 2.6 1.5 2 3.2-.8 1.4 0 3.2 1.3 3.8-1.5 2.3-2.9 4.6-4.3 6.9zm35.3 72.8c-4.1 5.5-8.5 12-14.2 15.5-3.5 2.2-7.9 3.5-11.8 1.4-4.4-2.3-6.8-7.5-6.6-12.7.2-7.1 5.2-14.3 9.4-19.4 4.9-6 11-10.4 17.6-14.1 6.8-3.8 14.1-6.2 21.6-8.1-2.5 13.4-7.7 26.2-16 37.4zM216.9 73.9c-2.1.8-4.7 1.8-7.2 2 2.3-2.4 4.2-5.1 5.6-8.1 1.7-3.6 4.1-9.4 1.2-13-2.8-3.5-8-1.8-11 .5-3.7 2.8-7 7.4-8.1 11.9-.7 3.2-.3 6.7 1.4 9.4-4.9 2.4-10.5 3.1-15.9 1.8-.9-.2-2.2-.3-2.5-1.2-.2-.7.6-2.3.8-2.9.1-.2.2-.4.3-.7 4.7-4.8 8.1-10.9 10.9-16.9 1.3-2.8-2.1-6-4.5-3.5-4 4.2-7.4 9-9.9 14.2-.5.9-1 2-1.6 3.2-4.5 4.4-9.9 7.3-16.6 6.5-3.3-.4-4.5-2.2-4.6-4.5.3-.2.6-.5.8-.7 14-11.8 27.7-25.4 33.1-43.4 1-3.4 2.8-8.7 1.8-12.2-1-3.5-4.5-4.7-7.6-3.4-3.5 1.4-5.7 5.1-8 8-2.9 3.7-5.6 7.5-8.2 11.4-5.2 7.9-9.6 16.3-13.3 25-1.5 3.7-3.8 8.3-4.5 12.8-1.3 1.1-2.7 2.1-4.1 3-3.4 2.3-9 3-8-2.6.7-4.1 1.7-8.1 2.6-12.1.4-1.9-1-3.3-2.4-3.5-1.5-1.3-3.9-2.2-6.1-2.6h-.1c-.5-.1-1-.2-1.5-.2h-1.2000000000000002c-3.7.3-7 2.4-9.8 4.8-3.4 2.8-6.2 6.4-8.4 10.2-2 3.6-4.5 8.4-2.7 12.5 3.3 7.9 13.3 3.4 18.1-.1 2.1-1.5 4-3.2 5.7-5.1.4 2.1 1.6 3.9 3.7 5.1 5.2 3.2 10.4.6 14.9-2.8.3.6.6 1.2 1 1.7 5.2 7.4 17 4.4 23.5.6.2.7.5 1.3.9 1.8 2.9 3.8 10.6 4 14.9 3.6 4.6-.3 9.2-1.7 13.2-4.1 4.7 2 10.2.5 14.8-1.3 3.5-.8 2-6.4-1.4-5.1zm-50.1-29.3c3.1-5.6 6.6-11.1 10.4-16.3 1.9-2.7 4-5.3 6.1-7.8.4-.5 1-1.5 1.6-1.7 1-.3.4.3.3 1.4-.2 1.7-.6 3.4-1 5.1-3.4 13.1-11.9 24-21.5 33.2-1.5 1.5-3.1 3-4.7 4.4 2.5-6.3 5.5-12.4 8.8-18.3zm-39.3 26.1c-2.8 3.1-7.3 7.2-11.7 7.7-4.2.4-2.3-4.2-1.1-6.6 1.1-2.3 2.5-4.5 4.1-6.4 1.3-1.6 6.3-6.5 10-7.4 1-.2 1.9-.2 2.6.3.6.4 1 1.1 1.3 2.1.1.4.3.7.5 1-1.3 3.4-3.2 6.5-5.7 9.3zm78.9.3c-.8 1-1.8 1.9-2.7 2.7-1.7-2.6-.3-6.8 1.4-9.3 1-1.5 2.3-3 3.7-4.2.5-.5 1.6-1.4 2.4-1.4 1.4 0 1 .1.6 1.5-.9 3.9-2.7 7.6-5.4 10.7zM129.7 52.3h-.9.5.4zM131.4 58.3c-.7-.1-1.3-.2-2-.2-.2 0-.4 0-.6-.1 1-.3 1.9-.2 2.6.3zM131.5 52.5c-.5-.1-1-.2-1.5-.2h.4c.4.1.8.1 1.1.2zM142 38c-8-.6-16.1-1-24.2-1.2 3.1-6.6 5.8-13.3 8.4-20.1 1.1-3-3.9-5.2-5.3-2.2-3.4 7.5-7.2 14.9-11 22.2-4.6 0-9.1 0-13.7.1-3.7.1-3.7 5.8 0 5.8 3.6-.1 7.2-.1 10.8-.1-2 4-4 7.9-5.8 12l-1.1 1.6c-2.2 3-4.6 6-7.1 8.7-2.4 2.6-5.3 6.3-8.5 7.8-5.6 2.8-4.8-5.4-3.8-8.4s2.2-5.8 2.7-9l.1-.8c.3-2.2-1.8-3.1-3.6-2.7-3.4-2.9-6.7-3.6-9.8-3-.1 0-.3.1-.5.1-5.5 1.1-9.2 5.8-12.7 9.9-3.9 4.5-7.6 8-11.7 12.3-1.1 1.1-5.8 5.1-5.3 1 .1-.5.4-.9.6-1.4 2-6.1 5.1-12.1 7.6-18.1 1.7-4.1 3.8-9.3 5.5-12.8 3.8-7.9 17.8-36.4 1.9-39.5-5.4-1-9.8 2.1-13.2 6-5.2 5.8-8.9 12.8-12.2 19.8-3.2 6.7-6 13.6-8.8 20.6 2-7.8 3.9-15.7 5.7-23.6 1.5-6.8 1.4-18-8.5-16-7.6 1.5-12.6 9.3-17.7 14.5-2.6 2.7 1.5 6.8 4.1 4.1 3.8-4 9.9-13.7 16.4-13 2.4 5.3-.7 12.3-2 17.5l-3.9 15.7c-2.7 11-5.5 22.1-8.4 33.1-.8 3.1 3.6 5.1 5.3 2.2 7.6-13.8 12.5-29.1 18.8-43.5 3.2-7.4 6.7-14.8 11-21.7 2.2-3.5 6-9.8 10.7-10.2 10.7-.9-3.5 29-5.3 33.2-4.4 10.2-9 20.4-12.9 30.8-1.2 3-1.1 6.6 1.7 8.8 3.9 3 9 .3 12.1-2.5 1.7-1.5 3.2-3.2 4.5-5-.8 2.7-1.4 5.7-.3 8.2 3.2 6.9 13.3 2.7 17.5-.5 1.8-1.3 3.3-2.9 4.6-4.6.6 1.1 1.4 2.1 2.6 3.1 5.8 4.7 12.2-.4 16.9-5.3-3.3 10.7-5 24.2 7 27.8 11 3.3 24.6-2.7 34.5-6.9 3.4-1.4 1.9-7-1.5-5.6-8.4 3.5-36.6 16.1-36.6-1.8 0-7 2.7-14.1 5.3-20.6l3-7.2c3.3-4.8 6.2-9.8 8.9-14.9 9 .2 18 .6 27 1.3 3.9.1 3.8-5.7.2-6zm-71.1 31.8c-1.6 2.1-3.5 3.9-5.7 5.2-1.2.7-5.8 3.1-6.9 1.4-1-1.4.9-5.9 1.4-7.4.8-2.5 1.7-5 3-7.2 2.7-4.5 8.4-8.6 13.8-6 .2.1.4.2.6.2-1.5 4.9-3.2 9.8-6.2 13.8zM204.5 33.3c-.3-.1-.7-.1-1-.1-1.8-1-3.4.5-4.7 1.6-1.9 1.8-5.3 5.3-2.7 7.9 2.4 2.4 6.7-.3 8.7-2 1.2-1 2.2-2.3 2.3-3.9.1-1.7-1-3-2.6-3.5z"/></svg>