<?xml version="1.0" encoding="utf-8"?>
<!-- Generator: Adobe Illustrator 19.1.0, SVG Export Plug-In . SVG Version: 6.00 Build 0)  -->
<svg version="1.1" id="Layer_1" xmlns="http://www.w3.org/2000/svg" xmlns:xlink="http://www.w3.org/1999/xlink" x="0px" y="0px"
	 viewBox="0 0 409.1 163.7" style="enable-background:new 0 0 409.1 163.7;" xml:space="preserve">
<style type="text/css">
	.st0{fill:#1C4687;}
</style>
<g>
	<g>
		<path class="st0" d="M406.1,92.9c-4.9,1.2-9.9,2.2-14.8,3.3c1.9-15.9,0.6-32.2-2.8-47.8c-0.4-1.8-3-2.7-4.1-1.1
			c-4.9,6.8-7.3,15-11.6,22.2c-2.1,3.5-7.6,8.8-11.3,4.4c-3.8-4.5-1.6-10.9,0.4-15.6c1.3-3.1-2.4-5.4-4.2-2.6
			c-3,4.6-5.9,9.2-8.9,13.7c-0.8,1.3-1.6,3-2.8,3.9c-0.8,0.6-3,2.2-3.9,0.5c-0.2-0.3,0.4-1.8,0.4-2.1c0.9-4.3,1.8-8.6,2.7-13
			c0.5-2.3-1.6-3.7-3.2-3.1c-0.3-4.4-4.7-8-9.1-7.1c-2.7,0.5-4.8,2.6-6.5,4.9l0,0c-3.5,5.1-9.1,9.8-13.4,14.3
			c-10.3,10.6-11.5,7.4-11.4,4.7c0.1-1,0.3-1.9,0.6-2.9c1.7-4.7,11-30,15.8-42.5c1.1-3-2.7-5.1-4.7-3.2
			c-10.8,10.2-19.3,22.5-26.8,35.5c4.8-17.3,9.6-34.6,14.4-51.9c0.7-2.4-1.3-4.2-3.4-3.9c-6.1,0.7-9.8,5.7-13.6,10.4
			c-5.2,6.5-10.1,13.2-14.9,20.1c-6.5,9.4-12.6,19.2-18.2,29.3c0.8-4.4,1.5-8.8,2.2-13.2c1.4-9,3.8-18.9,3.7-28
			c-0.1-5.3-3-9.4-8.2-7.7c-6.8,2.1-11.5,10.9-13.4,17.6c-1,3.8,4.4,5.7,5.5,1.8c1-3.5,2.3-6.7,4.7-9.4c1.2-1.3,2.4-2.5,3.9-3.5
			c1.2-0.7,1.6,0.2,1.7,2.5c0,2.9-0.8,7-1.1,9.4c-0.4,3.1-0.8,6.2-1.3,9.4c-1.9,13-4.2,25.9-6.9,38.7c-0.7,3.2,3.5,5.8,5.2,2.6
			c7-13.9,14.7-27.4,23.2-40.3c4.1-6.1,8.3-12.1,12.7-17.9c2.9-3.9,6.5-10.1,11-13.4c-6.6,23.6-13.2,47.2-19.7,70.8
			c-0.9,3.3,3.6,5.7,5.2,2.6c8.3-16.1,16.8-32.2,28-46c-3.3,8.7-10.6,29.8-11.5,34.6c-2.2,10.9,7.1,7,7.5,6.8
			c5.4-1.9,10.8-5.3,14.4-8.8c-1.2,6.5,3.1,12.6,10.1,10c3.4-1.2,5.7-4.2,7.7-7.2c0.8-1.2,1.5-2.4,2.3-3.5c-0.5,2.3-0.7,4.7,0.4,6.6
			c4.2,7.8,11.4,0.1,16.8-7.9c0.2,1.2,0.5,2.4,1,3.7c1.9,4.7,4.6,7.9,9.5,7.2C376.8,79,379.9,65.9,385,56c2.4,13.7,3,27.9,1.1,41.5
			c-9.3,2.3-18.4,5.1-26.9,10.2c-7.4,4.4-14,9.9-19.2,17.2c-4.1,5.7-8.4,13-8.3,20.5c0.1,7.6,4.4,15.1,11.3,17.5
			c7.2,2.5,14.7-1.7,19.8-6.8c12.2-12.1,21.5-28.5,25.9-45.7c0.7-2.9,1.3-5.8,1.8-8.7c5.6-1.3,11.3-2.4,16.9-3.7
			C410.5,97.3,409.1,92.2,406.1,92.9z M333.8,67.6c-1.1,1.8-2.2,3.6-3.5,5.3c-0.5,0.7-1,1.4-1.7,2.1c-2.1,2.7-6.5,3.5-6.5-2.3
			c0.2-1.8,1.9-4.2,2.7-5.9c1.1-2.2,2.1-4.5,3.3-6.7c0.8-1.4,1.5-3,2.6-4.2c1-1.4,2.4-2.1,4.1-2.2c1.9,0.5,2.6,1.5,2,3.2
			c-0.8,1.4,0,3.2,1.3,3.8C336.6,63,335.2,65.3,333.8,67.6z M369.1,140.4c-4.1,5.5-8.5,12-14.2,15.5c-3.5,2.2-7.9,3.5-11.8,1.4
			c-4.4-2.3-6.8-7.5-6.6-12.7c0.2-7.1,5.2-14.3,9.4-19.4c4.9-6,11-10.4,17.6-14.1c6.8-3.8,14.1-6.2,21.6-8.1
			C382.6,116.4,377.4,129.2,369.1,140.4z"/>
		<g>
			<path class="st0" d="M216.9,73.9c-2.1,0.8-4.7,1.8-7.2,2c2.3-2.4,4.2-5.1,5.6-8.1c1.7-3.6,4.1-9.4,1.2-13c-2.8-3.5-8-1.8-11,0.5
				c-3.7,2.8-7,7.4-8.1,11.9c-0.7,3.2-0.3,6.7,1.4,9.4c-4.9,2.4-10.5,3.1-15.9,1.8c-0.9-0.2-2.2-0.3-2.5-1.2
				c-0.2-0.7,0.6-2.3,0.8-2.9c0.1-0.2,0.2-0.4,0.3-0.7c4.7-4.8,8.1-10.9,10.9-16.9c1.3-2.8-2.1-6-4.5-3.5c-4,4.2-7.4,9-9.9,14.2
				c-0.5,0.9-1,2-1.6,3.2c-4.5,4.4-9.9,7.3-16.6,6.5c-3.3-0.4-4.5-2.2-4.6-4.5c0.3-0.2,0.6-0.5,0.8-0.7c14-11.8,27.7-25.4,33.1-43.4
				c1-3.4,2.8-8.7,1.8-12.2c-1-3.5-4.5-4.7-7.6-3.4c-3.5,1.4-5.7,5.1-8,8c-2.9,3.7-5.6,7.5-8.2,11.4c-5.2,7.9-9.6,16.3-13.3,25
				c-1.5,3.7-3.8,8.3-4.5,12.8c-1.3,1.1-2.7,2.1-4.1,3c-3.4,2.3-9,3-8-2.6c0.7-4.1,1.7-8.1,2.6-12.1c0.4-1.9-1-3.3-2.4-3.5
				c-1.5-1.3-3.9-2.2-6.1-2.6c0,0,0,0-0.1,0c-0.5-0.1-1-0.2-1.5-0.2c-0.1,0-0.2,0-0.2,0c0,0-0.1,0-0.1,0c-0.3,0-0.6,0-0.9,0
				c-3.7,0.3-7,2.4-9.8,4.8c-3.4,2.8-6.2,6.4-8.4,10.2c-2,3.6-4.5,8.4-2.7,12.5c3.3,7.9,13.3,3.4,18.1-0.1c2.1-1.5,4-3.2,5.7-5.1
				c0.4,2.1,1.6,3.9,3.7,5.1c5.2,3.2,10.4,0.6,14.9-2.8c0.3,0.6,0.6,1.2,1,1.7c5.2,7.4,17,4.4,23.5,0.6c0.2,0.7,0.5,1.3,0.9,1.8
				c2.9,3.8,10.6,4,14.9,3.6c4.6-0.3,9.2-1.7,13.2-4.1c4.7,2,10.2,0.5,14.8-1.3C221.8,78.2,220.3,72.6,216.9,73.9z M166.8,44.6
				c3.1-5.6,6.6-11.1,10.4-16.3c1.9-2.7,4-5.3,6.1-7.8c0.4-0.5,1-1.5,1.6-1.7c1-0.3,0.4,0.3,0.3,1.4c-0.2,1.7-0.6,3.4-1,5.1
				c-3.4,13.1-11.9,24-21.5,33.2c-1.5,1.5-3.1,3-4.7,4.4C160.5,56.6,163.5,50.5,166.8,44.6z M127.5,70.7c-2.8,3.1-7.3,7.2-11.7,7.7
				c-4.2,0.4-2.3-4.2-1.1-6.6c1.1-2.3,2.5-4.5,4.1-6.4c1.3-1.6,6.3-6.5,10-7.4c1-0.2,1.9-0.2,2.6,0.3c0.6,0.4,1,1.1,1.3,2.1
				c0.1,0.4,0.3,0.7,0.5,1C131.9,64.8,130,67.9,127.5,70.7z M206.4,71c-0.8,1-1.8,1.9-2.7,2.7c-1.7-2.6-0.3-6.8,1.4-9.3
				c1-1.5,2.3-3,3.7-4.2c0.5-0.5,1.6-1.4,2.4-1.4c1.4,0,1,0.1,0.6,1.5C210.9,64.2,209.1,67.9,206.4,71z"/>
			<path class="st0" d="M129.7,52.3c-0.3,0-0.6,0-0.9,0c0.2,0,0.4,0,0.5,0C129.5,52.3,129.6,52.3,129.7,52.3z"/>
			<path class="st0" d="M131.4,58.3c-0.7-0.1-1.3-0.2-2-0.2c-0.2,0-0.4,0-0.6-0.1C129.8,57.7,130.7,57.8,131.4,58.3z"/>
			<path class="st0" d="M131.5,52.5c-0.5-0.1-1-0.2-1.5-0.2c0.1,0,0.2,0,0.4,0C130.8,52.4,131.2,52.4,131.5,52.5z"/>
		</g>
		<g>
			<path class="st0" d="M142,38c-8-0.6-16.1-1-24.2-1.2c3.1-6.6,5.8-13.3,8.4-20.1c1.1-3-3.9-5.2-5.3-2.2c-3.4,7.5-7.2,14.9-11,22.2
				c-4.6,0-9.1,0-13.7,0.1c-3.7,0.1-3.7,5.8,0,5.8c3.6-0.1,7.2-0.1,10.8-0.1c-2,4-4,7.9-5.8,12c-0.4,0.5-0.7,1.1-1.1,1.6
				c-2.2,3-4.6,6-7.1,8.7c-2.4,2.6-5.3,6.3-8.5,7.8c-5.6,2.8-4.8-5.4-3.8-8.4c1-3,2.2-5.8,2.7-9c0,0,0,0,0,0h0
				c0-0.3,0.1-0.5,0.1-0.8c0.3-2.2-1.8-3.1-3.6-2.7c0,0,0,0,0,0c-3.4-2.9-6.7-3.6-9.8-3c-0.1,0-0.3,0.1-0.5,0.1
				c-5.5,1.1-9.2,5.8-12.7,9.9C53,63.2,49.3,66.7,45.2,71c-1.1,1.1-5.8,5.1-5.3,1c0.1-0.5,0.4-0.9,0.6-1.4c2-6.1,5.1-12.1,7.6-18.1
				c1.7-4.1,3.8-9.3,5.5-12.8c3.8-7.9,17.8-36.4,1.9-39.5c-5.4-1-9.8,2.1-13.2,6C37.1,12,33.4,19,30.1,26c-3.2,6.7-6,13.6-8.8,20.6
				c2-7.8,3.9-15.7,5.7-23.6c1.5-6.8,1.4-18-8.5-16C10.9,8.5,5.9,16.3,0.8,21.5c-2.6,2.7,1.5,6.8,4.1,4.1c3.8-4,9.9-13.7,16.4-13
				c2.4,5.3-0.7,12.3-2,17.5c-1.3,5.2-2.6,10.5-3.9,15.7c-2.7,11-5.5,22.1-8.4,33.1c-0.8,3.1,3.6,5.1,5.3,2.2
				C19.9,67.3,24.8,52,31.1,37.6c3.2-7.4,6.7-14.8,11-21.7c2.2-3.5,6-9.8,10.7-10.2c10.7-0.9-3.5,29-5.3,33.2
				c-4.4,10.2-9,20.4-12.9,30.8c-1.2,3-1.1,6.6,1.7,8.8c3.9,3,9,0.3,12.1-2.5c1.7-1.5,3.2-3.2,4.5-5c-0.8,2.7-1.4,5.7-0.3,8.2
				c3.2,6.9,13.3,2.7,17.5-0.5c1.8-1.3,3.3-2.9,4.6-4.6c0.6,1.1,1.4,2.1,2.6,3.1c5.8,4.7,12.2-0.4,16.9-5.3c-3.3,10.7-5,24.2,7,27.8
				c11,3.3,24.6-2.7,34.5-6.9c3.4-1.4,1.9-7-1.5-5.6c-8.4,3.5-36.6,16.1-36.6-1.8c0-7,2.7-14.1,5.3-20.6c1-2.4,2-4.8,3-7.2
				c3.3-4.8,6.2-9.8,8.9-14.9c9,0.2,18,0.6,27,1.3C145.7,44.1,145.6,38.3,142,38z M70.9,69.8c-1.6,2.1-3.5,3.9-5.7,5.2
				c-1.2,0.7-5.8,3.1-6.9,1.4c-1-1.4,0.9-5.9,1.4-7.4c0.8-2.5,1.7-5,3-7.2c2.7-4.5,8.4-8.6,13.8-6c0.2,0.1,0.4,0.2,0.6,0.2
				C75.6,60.9,73.9,65.8,70.9,69.8z"/>
		</g>
	</g>
	<g>
		<path class="st0" d="M204.5,33.3c-0.3-0.1-0.7-0.1-1-0.1c0,0,0,0,0,0c0,0,0,0,0,0c-1.8-1-3.4,0.5-4.7,1.6
			c-1.9,1.8-5.3,5.3-2.7,7.9c2.4,2.4,6.7-0.3,8.7-2c1.2-1,2.2-2.3,2.3-3.9C207.2,35.1,206.1,33.8,204.5,33.3z"/>
	</g>
</g>
</svg>
